<svg id="Layer_1" fill="white" data-name="Layer 1" xmlns="http://www.w3.org/2000/svg" viewBox="0 0 31 31"><title>icon</title><path id="Coderwall" d="M15.51.5a15,15,0,0,0-15,15,14.86,14.86,0,0,0,15,15,14.86,14.86,0,0,0,15-15A15,15,0,0,0,15.51.5Zm-6.72,11A2.59,2.59,0,1,1,11.38,8.9,2.59,2.59,0,0,1,8.79,11.49Zm6.71,6.59a2.58,2.58,0,1,1,2.58-2.58A2.57,2.57,0,0,1,15.5,18.08Zm0-6.59A2.59,2.59,0,1,1,18.08,8.9,2.58,2.58,0,0,1,15.5,11.49Zm6.71,13.19a2.59,2.59,0,1,1,2.58-2.58A2.59,2.59,0,0,1,22.21,24.68Zm0-6.6a2.58,2.58,0,1,1,2.58-2.58A2.58,2.58,0,0,1,22.21,18.08Zm0-6.59A2.59,2.59,0,1,1,24.79,8.9,2.59,2.59,0,0,1,22.21,11.49Z"/></svg>
