<svg id="Layer_1" fill="white" data-name="Layer 1" xmlns="http://www.w3.org/2000/svg" viewBox="0 0 31 31"><title>icon</title><g id="Reddit"><path d="M15.47.46a15,15,0,0,1,0,30,14.85,14.85,0,0,1-15-15A15,15,0,0,1,15.47.46Zm4.87,6.77L20,7.17l-3.21-.71c-.41-.09-.52,0-.61.39L15.49,10c-.14.64-.29,1.28-.44,1.95a9.9,9.9,0,0,0-5.13,1.59,2.12,2.12,0,0,0-3.16.27,2.07,2.07,0,0,0-.36,1.43,2.1,2.1,0,0,0,1.1,1.58,1.07,1.07,0,0,1,0,.18,4.39,4.39,0,0,0,.93,3.56,7.87,7.87,0,0,0,4.1,2.59,10.91,10.91,0,0,0,5.08.19A8.25,8.25,0,0,0,22.15,21a4.42,4.42,0,0,0,1.37-3.34c0-.28,0-.55-.07-.85a2,2,0,0,0,1-1.31,2,2,0,0,0-.3-1.66A1.91,1.91,0,0,0,22.93,13a2.12,2.12,0,0,0-1.92.53A9.64,9.64,0,0,0,15.85,12l1-4.69L20.17,8c.23,1,.75,1.51,1.61,1.5a1.54,1.54,0,1,0-1.44-2.27Z"/><path d="M10.68,16.94a1.47,1.47,0,0,1,1.49-1.43,1.47,1.47,0,0,1-.05,2.93A1.47,1.47,0,0,1,10.68,16.94Z"/><path d="M20.23,17a1.46,1.46,0,0,1-1.46,1.47A1.44,1.44,0,0,1,17.31,17a1.46,1.46,0,1,1,2.92,0Z"/><path d="M18.88,20.38a2.77,2.77,0,0,1-1.47.91,7.27,7.27,0,0,1-3.9,0A2.83,2.83,0,0,1,12,20.39c.05-.4.3-.54.56-.32a3.28,3.28,0,0,0,1.93.76,7.71,7.71,0,0,0,2.3-.07,3.25,3.25,0,0,0,1.45-.66C18.57,19.86,18.81,20,18.88,20.38Z"/></g></svg>
