<svg id="Layer_1" fill="white" data-name="Layer 1" xmlns="http://www.w3.org/2000/svg" viewBox="0 0 31 31"><title>icon</title><g id="Github"><path d="M19.23,27.45c0-.69,0-1.39,0-2.08A4.68,4.68,0,0,0,19,23.89a2.59,2.59,0,0,0-.64-1.08c-.08-.08-.09-.13.05-.16.46-.08.92-.15,1.38-.24A7,7,0,0,0,22.86,21a5.25,5.25,0,0,0,1.62-2.35A8.17,8.17,0,0,0,25,16.32c0-.59.08-1.18.05-1.76a5.52,5.52,0,0,0-.81-2.62c-.16-.26-.35-.51-.53-.75a.43.43,0,0,1-.11-.46A4.74,4.74,0,0,0,23.7,8c-.07-.31-.19-.61-.27-.92a.31.31,0,0,0-.28-.24,1.67,1.67,0,0,0-.77.07,8.76,8.76,0,0,0-2.71,1.28,1,1,0,0,1-.89.16,8.69,8.69,0,0,0-2-.33c-.69,0-1.39-.07-2.08,0A13.37,13.37,0,0,0,13,8.17c-.35.05-.7.14-1,.22a.48.48,0,0,1-.43-.08A9.84,9.84,0,0,0,9.14,7.08a6.56,6.56,0,0,0-1.06-.26c-.33-.06-.46,0-.58.37a6.87,6.87,0,0,0-.36,1.9,4,4,0,0,0,.24,1.61.46.46,0,0,1-.09.49A5.45,5.45,0,0,0,6,14.4a16.85,16.85,0,0,0,0,1.88,7.61,7.61,0,0,0,.49,2.27,5.48,5.48,0,0,0,1.17,2,5.39,5.39,0,0,0,1.28,1,7.76,7.76,0,0,0,2.58.93c.36.06.72.13,1.08.18.12,0,.14.07.05.16a3.07,3.07,0,0,0-.78,1.64.44.44,0,0,1-.31.39,4.18,4.18,0,0,1-2.24.21,2.38,2.38,0,0,1-1.39-.91c-.26-.34-.47-.71-.72-1a3,3,0,0,0-2-1.23,1.57,1.57,0,0,0-.53.06.19.19,0,0,0-.12.32,1.92,1.92,0,0,0,.45.49A4.32,4.32,0,0,1,6.68,25,2.83,2.83,0,0,0,9,26.9a6.52,6.52,0,0,0,1.59.11c.29,0,.57-.06.86-.1s.26,0,.26.22c0,.86,0,1.71,0,2.56a.73.73,0,0,1-1,.76A11.78,11.78,0,0,1,9.56,30,14.53,14.53,0,0,1,6,27.83a16.36,16.36,0,0,1-3-3.35,14.88,14.88,0,0,1-1.92-4.07A12.26,12.26,0,0,1,.6,17.6c0-.71-.11-1.43-.1-2.14A15.44,15.44,0,0,1,1.64,9.93,16.51,16.51,0,0,1,3.9,6.11a14.6,14.6,0,0,1,3.2-3A14.61,14.61,0,0,1,16,.51a14.53,14.53,0,0,1,5.65,1.33,15,15,0,0,1,4.89,3.6,15.75,15.75,0,0,1,2.63,4.05,15.08,15.08,0,0,1,1.21,4.25,12,12,0,0,1,.1,2.87c-.05.52-.07,1-.13,1.56a14.52,14.52,0,0,1-.7,2.91,13.92,13.92,0,0,1-1.3,2.76,21,21,0,0,1-1.27,1.81,14.22,14.22,0,0,1-3.61,3.27,14.57,14.57,0,0,1-3.13,1.51,1.18,1.18,0,0,1-.27.06.69.69,0,0,1-.82-.77c0-.75,0-1.51,0-2.27Z"/><path d="M9,25.66a.64.64,0,0,1-.21-.09.28.28,0,0,1-.12-.19.32.32,0,0,1,.15-.18.36.36,0,0,1,.44.18C9.34,25.52,9.21,25.67,9,25.66Z"/><path d="M11.24,25.7s-.14-.07-.18-.15a.2.2,0,0,1,.14-.27.33.33,0,0,1,.38,0,.28.28,0,0,1,.05.22C11.61,25.62,11.46,25.69,11.24,25.7Z"/><path d="M8.24,24.87a.2.2,0,0,1-.22.18.42.42,0,0,1-.35-.35.2.2,0,0,1,.22-.18A.45.45,0,0,1,8.24,24.87Z"/><path d="M10.21,25.82c-.22,0-.29,0-.3-.17a.22.22,0,0,1,.2-.24c.21,0,.33,0,.38.1a.22.22,0,0,1-.14.3Z"/><path d="M7.18,23.62c.06.07.17.13.21.23a.72.72,0,0,1,0,.29s0,0,0,0S7.1,24.13,7,24s-.07-.27,0-.33Z"/><path d="M6.81,23.13a.17.17,0,0,1-.17.18A.36.36,0,0,1,6.39,23c0-.11.06-.15.15-.15A.28.28,0,0,1,6.81,23.13Z"/><path d="M6.18,22.56s-.09.09-.14.09a.26.26,0,0,1-.24-.21c0-.1.09-.11.16-.09A.23.23,0,0,1,6.18,22.56Z"/></g></svg>
